<?xml version="1.0" encoding="UTF-8" standalone="no"?>
<!-- Created with Inkscape (http://www.inkscape.org/) -->

<svg
   xmlns:dc="http://purl.org/dc/elements/1.1/"
   xmlns:cc="http://creativecommons.org/ns#"
   xmlns:rdf="http://www.w3.org/1999/02/22-rdf-syntax-ns#"
   xmlns:svg="http://www.w3.org/2000/svg"
   xmlns="http://www.w3.org/2000/svg"
   version="1.1"
   width="100%"
   height="100%"
   viewBox="0 0 476.59999 182.98377"
   id="Lager_1"
   xml:space="preserve"><metadata
     id="metadata31"><rdf:RDF><cc:Work
         rdf:about=""><dc:format>image/svg+xml</dc:format><dc:type
           rdf:resource="http://purl.org/dc/dcmitype/StillImage" /><dc:title></dc:title></cc:Work></rdf:RDF></metadata><defs
     id="defs29" /><style
     type="text/css"
     id="style3" /><g
     transform="translate(-174.50002,-150.8)"
     id="g5"><path
       d="m 227.2,205.6 c 13.4,0 22.9,4.2 28.6,12.6 3.6,5.4 5.5,12 5.5,19.8 0,10.6 -2.9,18.7 -8.7,24.2 -5.7,5.5 -14.2,8.2 -25.4,8.2 -14,0 -23.7,-4.4 -29.3,-13.1 v 4.4 c 0,2.1 -0.8,3.9 -2.3,5.4 -1.5,1.5 -3.3,2.3 -5.5,2.3 h -15.6 v -4.1 h 15.6 c 0.8,0 1.5,-0.4 2.1,-1.1 0.6,-0.7 0.8,-1.6 0.8,-2.5 v -76.9 c 0,-1 -0.3,-1.8 -0.8,-2.6 -0.6,-0.7 -1.3,-1.1 -2.1,-1.1 h -3 v -4 h 3 c 2.2,0 4,0.8 5.5,2.3 1.5,1.5 2.3,3.3 2.3,5.4 v 34.3 c 5.6,-9 15.4,-13.5 29.3,-13.5 z m 0,60.8 c 19.6,0 29.3,-9.5 29.3,-28.4 0,-6.9 -1.6,-12.7 -4.8,-17.4 -4.9,-7.3 -13.1,-11 -24.6,-11 -11.5,0 -19.7,3.7 -24.6,11 -3.1,4.7 -4.7,10.5 -4.7,17.4 0.1,18.9 9.9,28.4 29.4,28.4 z"
       id="path7"
       style="fill:#717171" /><path
       d="m 276.9,206.6 v 62.8 H 272 v -62.8 l 4.9,0 0,0 z"
       id="path9"
       style="fill:#717171" /><path
       d="m 321.9,205.5 c 13.4,0 22.9,4.2 28.6,12.6 3.7,5.4 5.5,12 5.5,19.9 0,10.6 -2.9,18.7 -8.7,24.2 -5.8,5.5 -14.3,8.3 -25.5,8.3 -11.2,0 -19.7,-2.8 -25.5,-8.3 -5.8,-5.5 -8.7,-13.6 -8.7,-24.2 0,-7.9 1.8,-14.5 5.5,-19.9 5.9,-8.4 15.4,-12.6 28.8,-12.6 z m 0,61 c 19.6,0 29.3,-9.5 29.3,-28.5 0,-6.9 -1.6,-12.7 -4.7,-17.5 -4.9,-7.3 -13.1,-11 -24.6,-11 -11.5,0 -19.7,3.7 -24.6,11 -3.1,4.8 -4.7,10.6 -4.7,17.5 0,19 9.8,28.5 29.3,28.5 z"
       id="path11"
       style="fill:#717171" /><path
       d="m 433.2,239.9 h -63.5 c 0.7,17.6 10.5,26.4 29.3,26.4 6.9,0 12.8,-1.2 17.6,-3.6 2.5,-1.2 4.2,-2.5 5.2,-3.7 0.5,-0.6 0.8,-1.4 0.8,-2.1 v -4.8 h 4.9 v 4.8 c 0,1.6 -0.5,3 -1.6,4.4 -1.3,1.6 -3.4,3.2 -6.3,4.7 -5.6,3 -12.4,4.4 -20.6,4.4 -11.2,0 -19.7,-2.8 -25.5,-8.3 -5.8,-5.5 -8.7,-13.6 -8.7,-24.2 0,-7.9 1.8,-14.5 5.5,-19.9 5.7,-8.4 15.2,-12.6 28.6,-12.6 13.4,0 22.9,4.2 28.6,12.6 3.7,5.4 5.5,12 5.5,19.9 v 2 h 0.2 z m -34.1,-30.5 c -10.7,0 -18.5,3.1 -23.5,9.4 -3.5,4.4 -5.5,10.1 -5.8,17.1 h 58.6 c -0.4,-7 -2.3,-12.6 -5.9,-17.1 -4.9,-6.3 -12.8,-9.4 -23.4,-9.4 z"
       id="path13"
       style="fill:#717171" /></g><ellipse
     cx="441.10001"
     cy="171.60001"
     rx="16"
     ry="16.6"
     transform="translate(-174.50002,-150.8)"
     id="ellipse15"
     style="opacity:0.85;fill:#ffa400;enable-background:new" /><path
     d="m 360.99998,98.6 h 4.8 v 7 c 0,2 -0.7,3.9 -2,5.6 -1.2,1.5 -3.3,3 -6.1,4.4 -5.5,2.8 -12.3,4.2 -20.4,4.2 -11.6,0 -20.3,-3.4 -26.3,-10.3 -5.1,-5.8 -7.6,-13.2 -7.6,-22.1 0,-9 2.5,-16.4 7.6,-22.2 6,-6.9 14.8,-10.4 26.3,-10.4 8.1,0 14.9,1.4 20.4,4.2 2.9,1.5 4.9,3 6.2,4.5 1.3,1.7 1.9,3.6 1.9,5.6 v 6.8 h -4.8 v -6.8 c 0,-1.2 -0.4,-2.4 -1.2,-3.3 -1,-1.2 -2.7,-2.3 -5.1,-3.5 -4.7,-2.3 -10.5,-3.4 -17.4,-3.4 -11.6,0 -19.8,3.9 -24.7,11.7 -2.9,4.8 -4.4,10.4 -4.4,16.8 0,6.4 1.5,12 4.4,16.7 4.9,7.8 13.1,11.7 24.7,11.7 6.9,0 12.7,-1.1 17.4,-3.3 2.5,-1.2 4.2,-2.3 5.1,-3.5 0.8,-1 1.2,-2.1 1.2,-3.3 l 0,-7.1 0,0 z"
     id="path17"
     style="fill:#717171" /><path
     d="m 442.69998,89.1 h -63.5 c 0.7,17.6 10.5,26.4 29.3,26.4 6.9,0 12.8,-1.2 17.6,-3.6 2.5,-1.2 4.2,-2.5 5.2,-3.7 0.5,-0.6 0.8,-1.4 0.8,-2.1 v -4.8 h 4.9 v 4.8 c 0,1.6 -0.5,3 -1.6,4.4 -1.3,1.6 -3.4,3.2 -6.3,4.7 -5.6,3 -12.4,4.4 -20.6,4.4 -11.2,0 -19.7,-2.8 -25.5,-8.3 -5.8,-5.5 -8.7,-13.6 -8.7,-24.2 0,-7.9 1.8,-14.5 5.5,-19.9 5.7,-8.4 15.2,-12.6 28.6,-12.6 13.4,0 22.9,4.2 28.6,12.6 3.7,5.4 5.5,12 5.5,19.9 v 2 h 0.2 z m -34.1,-30.5 c -10.7,0 -18.5,3.1 -23.5,9.4 -3.5,4.4 -5.5,10.1 -5.8,17.1 h 58.6 c -0.4,-7 -2.3,-12.6 -5.9,-17.1 -4.9,-6.3 -12.8,-9.4 -23.4,-9.4 z"
     id="path19"
     style="fill:#717171" /><path
     d="m 227.99998,3.1 c 0,0 10.9,30.5 37.4,49.1 26.5,18.6 34.2,27.3 54.5,46.5 14.2,13.4 11.8,32.2 8,46.9 -3.8,14.7 2.8,-16 -20.4,-34.6 -6.4,-5.1 -29.2,-23.3 -51.7,-42.7 -19.9,-17.3 -36.7,-40 -27.8,-65.2 z"
     id="path21"
     style="opacity:0.76999996;fill:#009a44;enable-background:new" /><path
     d="m 310.19998,0 c 0,0 15.8,31.9 -6.3,62.5 -24.5,33.9 -45.9,54.4 -62.1,72.9 -11.3,12.9 -14.9,37.8 -10.2,46.4 4.7,8.6 -20.1,-31.5 1.8,-60.7 16.2,-21.7 43.6,-53.1 60,-73.5 13.2,-16.5 22.4,-22.1 16.8,-47.6 z"
     id="path23"
     style="opacity:0.85;fill:#ffa400;enable-background:new" /><path
     d="M 453.19998,68.9 V 34.6 c 0,-2.1 0.8,-3.9 2.3,-5.4 1.5,-1.5 3.3,-2.3 5.5,-2.3 h 3 v 4 h -3 c -0.8,0 -1.5,0.4 -2.1,1.1 -0.6,0.7 -0.8,1.6 -0.8,2.6 v 76.9 c 0,0.9 0.3,1.8 0.8,2.5 0.6,0.7 1.3,1.1 2.1,1.1 h 15.6 v 4.1 h -15.6 c -2.2,0 -4,-0.8 -5.5,-2.3 -1.5,-1.5 -2.3,-3.3 -2.3,-5.4 v -4.4 -38.2 z"
     id="path25"
     style="fill:#717171" /></svg>