<svg xmlns="http://www.w3.org/2000/svg" xmlns:xlink="http://www.w3.org/1999/xlink" width="281pt" height="193pt" viewBox="0 0 289 198"><g id="graph0" class="graph" transform="scale(0.972222 0.972222) rotate(0) translate(4 194)"><title>workflow</title><g id="clust2" class="cluster"><title>cluster_outputs</title><polygon fill="none" stroke="#000" stroke-dasharray="5 2" points="138 -8 138 -63 225 -63 225 -8 138 -8"/><text x="181.5" y="-15" font-family="Times,serif" font-size="10" text-anchor="middle">Workflow Outputs</text></g><g id="node1" class="node"><title>output</title><polygon fill="#94ddf4" stroke="#000" points="159 -35.5 159 -54.5 203 -54.5 203 -35.5 159 -35.5"/><text x="181" y="-42.5" font-family="Helvetica,sans-Serif" font-size="10" text-anchor="middle">output</text></g><g id="node2" class="node"><title>compilesources-src2</title><polygon fill="#fafad2" stroke="#000" points="21 -125.5 21 -144.5 125 -144.5 125 -125.5 21 -125.5"/><text x="73" y="-132.5" font-family="Helvetica,sans-Serif" font-size="10" text-anchor="middle">compilesources-src2</text></g><g id="node3" class="node"><title>linkobj</title><polygon fill="#fafad2" stroke="#000" points="159 -80.5 159 -99.5 203 -99.5 203 -80.5 159 -80.5"/><text x="181" y="-87.5" font-family="Helvetica,sans-Serif" font-size="10" text-anchor="middle">linkobj</text></g><g id="edge4" class="edge"><title>compilesources-src2-&gt;linkobj</title><path fill="none" stroke="#000" d="M94.5958,-125.402C111.225,-118.781 134.36,-109.57 152.506,-102.345"/><polygon fill="#000" stroke="#000" points="153.844 -104.449 159.442 -99.583 152.032 -99.897 153.844 -104.449"/><text x="150.5" y="-110.6" font-family="Helvetica,sans-Serif" font-size="8" text-anchor="middle">objects</text></g><g id="edge8" class="edge"><title>linkobj-&gt;output</title><path fill="none" stroke="#000" d="M181,-80.2983C181,-75.0528 181,-68.2092 181,-62.0161"/><polygon fill="#000" stroke="#000" points="183.45 -61.689 181 -54.689 178.55 -61.689 183.45 -61.689"/></g><g id="node4" class="node"><title>compilesources-src1</title><polygon fill="#fafad2" stroke="#000" points="129 -125.5 129 -144.5 233 -144.5 233 -125.5 129 -125.5"/><text x="181" y="-132.5" font-family="Helvetica,sans-Serif" font-size="10" text-anchor="middle">compilesources-src1</text></g><g id="edge5" class="edge"><title>compilesources-src1-&gt;linkobj</title><path fill="none" stroke="#000" d="M181,-125.298C181,-120.053 181,-113.209 181,-107.016"/><polygon fill="#000" stroke="#000" points="183.45 -106.689 181 -99.689 178.55 -106.689 183.45 -106.689"/><text x="194.5" y="-110.6" font-family="Helvetica,sans-Serif" font-size="8" text-anchor="middle">objects</text></g><g id="node5" class="node"><title>default1</title><polygon fill="#d5aefc" stroke="#000" points="0 -170.5 0 -189.5 58 -189.5 58 -170.5 0 -170.5"/><text x="29" y="-177.5" font-family="Helvetica,sans-Serif" font-size="10" text-anchor="middle">source2.c</text></g><g id="edge1" class="edge"><title>default1-&gt;compilesources-src2</title><path fill="none" stroke="#000" d="M37.9041,-170.298C43.868,-164.47 51.8506,-156.669 58.6959,-149.979"/><polygon fill="#000" stroke="#000" points="60.815 -151.334 64.109 -144.689 57.391 -147.829 60.815 -151.334"/><text x="61" y="-155.6" font-family="Helvetica,sans-Serif" font-size="8" text-anchor="middle">src</text></g><g id="node6" class="node"><title>default2</title><polygon fill="#d5aefc" stroke="#000" points="62 -170.5 62 -189.5 126 -189.5 126 -170.5 62 -170.5"/><text x="94" y="-177.5" font-family="Helvetica,sans-Serif" font-size="10" text-anchor="middle">&quot;source2.o&quot;</text></g><g id="edge2" class="edge"><title>default2-&gt;compilesources-src2</title><path fill="none" stroke="#000" d="M89.7503,-170.298C87.0747,-164.82 83.5477,-157.598 80.4206,-151.194"/><polygon fill="#000" stroke="#000" points="82.517 -149.904 77.243 -144.689 78.114 -152.054 82.517 -149.904"/><text x="97.5" y="-155.6" font-family="Helvetica,sans-Serif" font-size="8" text-anchor="middle">object</text></g><g id="node7" class="node"><title>default3</title><polygon fill="#d5aefc" stroke="#000" points="237 -125.5 237 -144.5 281 -144.5 281 -125.5 237 -125.5"/><text x="259" y="-132.5" font-family="Helvetica,sans-Serif" font-size="10" text-anchor="middle">&quot;a.out&quot;</text></g><g id="edge3" class="edge"><title>default3-&gt;linkobj</title><path fill="none" stroke="#000" d="M243.216,-125.298C231.616,-118.904 215.708,-110.134 202.882,-103.063"/><polygon fill="#000" stroke="#000" points="203.808 -100.776 196.495 -99.542 201.442 -105.067 203.808 -100.776"/><text x="238.5" y="-110.6" font-family="Helvetica,sans-Serif" font-size="8" text-anchor="middle">output</text></g><g id="node8" class="node"><title>default4</title><polygon fill="#d5aefc" stroke="#000" points="141 -170.5 141 -189.5 199 -189.5 199 -170.5 141 -170.5"/><text x="170" y="-177.5" font-family="Helvetica,sans-Serif" font-size="10" text-anchor="middle">source1.c</text></g><g id="edge6" class="edge"><title>default4-&gt;compilesources-src1</title><path fill="none" stroke="#000" d="M172.226,-170.298C173.598,-164.936 175.397,-157.904 177.008,-151.604"/><polygon fill="#000" stroke="#000" points="179.416 -152.078 178.777 -144.689 174.669 -150.863 179.416 -152.078"/><text x="183" y="-155.6" font-family="Helvetica,sans-Serif" font-size="8" text-anchor="middle">src</text></g><g id="node9" class="node"><title>default5</title><polygon fill="#d5aefc" stroke="#000" points="203 -170.5 203 -189.5 267 -189.5 267 -170.5 203 -170.5"/><text x="235" y="-177.5" font-family="Helvetica,sans-Serif" font-size="10" text-anchor="middle">&quot;source1.o&quot;</text></g><g id="edge7" class="edge"><title>default5-&gt;compilesources-src1</title><path fill="none" stroke="#000" d="M224.072,-170.298C216.46,-164.237 206.168,-156.041 197.554,-149.182"/><polygon fill="#000" stroke="#000" points="198.914 -147.133 191.911 -144.689 195.861 -150.966 198.914 -147.133"/><text x="224.5" y="-155.6" font-family="Helvetica,sans-Serif" font-size="8" text-anchor="middle">object</text></g></g></svg>